# xmcd CD database file
# Copyright (C) 1994 Ti Kan
#
# Track frame offsets:
#	150
#	24730
#	44060
#	58195
#	81560
#	127375
#	152868
#	175578
#
# Disc length: 2584 seconds
#
# Revision: 1
# Processed by: cddbd v1.4b41PL1 Copyright (c) Steve Scherf et al.
# Submitted via: xmcd 1.3
#
DISCID=760a1608
DTITLE=Allman Brothers Band - IRSA International Rett Syndrome Associat
DTITLE=ion
DYEAR=1900
DGENRE=
TTITLE0=Come On In My Kitchen
TTITLE1=Seven Turns
TTITLE2=Midnight Rider
TTITLE3=South Bound
TTITLE4=In Memory of Elizabeth Reed
TTITLE5=Goin' Down The Road
TTITLE6=Melissa
TTITLE7=Midnight Blues
EXTD=Limited Collectors\nEdition - 15,000 copies.\nWhen they are gone\nt
EXTD=hey're gone.\n\n
EXTT0=
EXTT1=
EXTT2=
EXTT3=
EXTT4=
EXTT5=
EXTT6=
EXTT7=
PLAYORDER=
